<svg width="140" height="44" viewBox="0 0 140 44" fill="none" xmlns="http://www.w3.org/2000/svg">
<g clip-path="url(#clip0_146_494)">
<path d="M8.55035 0.5H131.364C134.333 0.5 136.338 1.08862 137.605 2.265C138.864 3.4332 139.5 5.2786 139.5 8.04424V35.9985C139.5 38.7643 138.865 40.5978 137.608 41.755C136.341 42.9213 134.336 43.5 131.366 43.5H8.54207C5.57284 43.5 3.59404 42.9221 2.35052 41.76C1.11524 40.6056 0.5 38.7743 0.5 36.0062V8.04424C0.5 5.2067 0.817835 3.38582 1.89137 2.24039C2.95908 1.10118 4.90296 0.5 8.55035 0.5Z" fill="black" stroke="#A6A6A6"/>
<path fill-rule="evenodd" clip-rule="evenodd" d="M36.5004 27.3887C35.7956 28.8549 35.4576 29.5098 34.55 30.8052C33.2825 32.6144 31.4976 34.8674 29.2852 34.8868C27.3197 34.9036 26.8149 33.6859 24.1473 33.7001C21.4797 33.7144 20.9225 34.9075 18.9556 34.8907C16.7432 34.8713 15.0521 32.8369 13.7845 31.0278C10.2425 25.9678 9.87144 20.0304 12.0563 16.874C13.6094 14.6313 16.0576 13.3178 18.3611 13.3178C20.7059 13.3178 22.1804 14.5239 24.1183 14.5239C25.9983 14.5239 27.1445 13.3152 29.8563 13.3152C31.9059 13.3152 34.0769 14.3621 35.6231 16.1726C30.5556 18.7802 31.379 25.5731 36.5004 27.3887Z" fill="white"/>
<path fill-rule="evenodd" clip-rule="evenodd" d="M27.7998 11.2964C28.7846 10.1109 29.5322 8.43506 29.2618 6.72294C27.6536 6.82647 25.7708 7.78669 24.6715 9.0394C23.6743 10.1756 22.8508 11.8619 23.1722 13.5002C24.928 13.5507 26.7446 12.5672 27.7998 11.2964Z" fill="white"/>
<path d="M47.6376 17.6071C49.3832 17.6071 50.5847 16.7578 50.9188 15.312H49.7065C49.4318 16.1259 48.6828 16.6011 47.6429 16.6011C46.2151 16.6011 45.31 15.5244 45.31 13.8208C45.31 12.1324 46.226 11.0455 47.6376 11.0455C48.6451 11.0455 49.4533 11.6066 49.7065 12.4711H50.9188C50.6602 11.0152 49.3509 10.0395 47.6376 10.0395C45.4662 10.0395 44.0762 11.5106 44.0762 13.8208C44.0762 16.1462 45.4555 17.6071 47.6376 17.6071Z" fill="white"/>
<path d="M54.2812 14.6498L56.7919 12.1526H55.4018L53.182 14.4273H53.1389V12.1526H51.9805V17.4706H53.1389V15.0189H53.182L55.4287 17.4706H56.8889L54.2812 14.6498Z" fill="white"/>
<path d="M59.4648 16.6971C58.8399 16.6971 58.4303 16.3939 58.4303 15.9288C58.4303 15.4738 58.8237 15.1857 59.5188 15.1401L60.9142 15.0593V15.4788C60.9142 16.1714 60.2785 16.6971 59.4648 16.6971ZM59.1415 17.5616C59.8851 17.5616 60.6017 17.1874 60.9303 16.596H60.9574V17.4706H62.0726V13.8056C62.0726 12.739 61.1943 12.0565 59.8204 12.0565C58.4196 12.0565 57.5468 12.7642 57.4821 13.7248H58.5812C58.6836 13.2496 59.1039 12.9462 59.7774 12.9462C60.4885 12.9462 60.9142 13.3 60.9142 13.8916V14.301L59.3625 14.387C58.0154 14.4578 57.2559 15.029 57.2559 15.9591C57.2559 16.9145 58.0317 17.5616 59.1415 17.5616Z" fill="white"/>
<path d="M67.8697 17.4706V12.1526H66.7166V14.2454C66.4797 14.5082 66.054 14.7307 65.4235 14.7307C64.707 14.7307 64.3245 14.3162 64.3245 13.654V12.1526H63.166V13.7349C63.166 14.8975 63.9042 15.6609 65.2404 15.6609C65.8653 15.6609 66.3342 15.4788 66.6412 15.2059H66.7166V17.4706H67.8697Z" fill="white"/>
<path d="M70.2727 17.4706L72.8912 13.7349H72.9342V17.4706H74.082V12.1526H72.9342L70.3158 15.8782H70.2727V12.1526H69.125V17.4706H70.2727Z" fill="white"/>
<path d="M77.6704 12.9462C78.2362 12.9462 78.5433 13.1939 78.5433 13.6338C78.5433 14.1038 78.2147 14.3414 77.5573 14.3414H76.4798V12.9462H77.6704ZM77.6327 15.1048C78.3978 15.1048 78.7749 15.3676 78.7749 15.8933C78.7749 16.404 78.4193 16.6769 77.762 16.6769H76.4798V15.1048H77.6327ZM75.332 17.4706H77.9398C79.1683 17.4706 79.9334 16.8741 79.9334 15.9389C79.9334 15.2716 79.4484 14.7863 78.7158 14.6954V14.6548C79.2599 14.5588 79.6802 14.0584 79.6802 13.5074C79.6802 12.6682 79.012 12.1526 77.9075 12.1526H75.332V17.4706Z" fill="white"/>
<path d="M82.9562 16.6971C82.3311 16.6971 81.9217 16.3939 81.9217 15.9288C81.9217 15.4738 82.3149 15.1857 83.01 15.1401L84.4056 15.0593V15.4788C84.4056 16.1714 83.7697 16.6971 82.9562 16.6971ZM82.6329 17.5616C83.3764 17.5616 84.093 17.1874 84.4217 16.596H84.4486V17.4706H85.5639V13.8056C85.5639 12.739 84.6857 12.0565 83.3118 12.0565C81.9109 12.0565 81.038 12.7642 80.9734 13.7248H82.0725C82.1749 13.2496 82.5951 12.9462 83.2686 12.9462C83.9799 12.9462 84.4056 13.3 84.4056 13.8916V14.301L82.8538 14.387C81.5068 14.4578 80.7471 15.029 80.7471 15.9591C80.7471 16.9145 81.5229 17.5616 82.6329 17.5616Z" fill="white"/>
<path d="M87.9347 17.4706L90.5533 13.7349H90.5964V17.4706H91.7441V12.1526H90.5964L87.9779 15.8782H87.9347V12.1526H86.7871V17.4706H87.9347ZM87.5576 9.8171C87.5576 10.7725 88.2795 11.4196 89.3464 11.4196C90.4186 11.4196 91.1406 10.7725 91.1406 9.8171H90.3539C90.3485 10.3883 89.9606 10.8231 89.3464 10.8231C88.7376 10.8231 88.3496 10.3883 88.3442 9.8171H87.5576Z" fill="white"/>
<path d="M97.3043 12.1526H92.5898V13.017H94.3679V17.4706H95.5263V13.017H97.3043V12.1526Z" fill="white"/>
<path d="M100.424 12.9361C101.237 12.9361 101.787 13.5074 101.814 14.3212H98.9798C99.039 13.5174 99.6102 12.9361 100.424 12.9361ZM101.808 15.9086C101.652 16.3736 101.162 16.687 100.499 16.687C99.567 16.687 98.9743 16.0754 98.9743 15.1502V15.0845H102.978V14.7105C102.978 13.0979 101.997 12.0565 100.424 12.0565C98.8235 12.0565 97.7998 13.1687 97.7998 14.8368C97.7998 16.5151 98.8074 17.5717 100.472 17.5717C101.771 17.5717 102.751 16.8792 102.913 15.9086H101.808Z" fill="white"/>
<path d="M108.554 12.9462C109.12 12.9462 109.427 13.1939 109.427 13.6338C109.427 14.1038 109.098 14.3414 108.441 14.3414H107.364V12.9462H108.554ZM108.517 15.1048C109.282 15.1048 109.659 15.3676 109.659 15.8933C109.659 16.404 109.303 16.6769 108.646 16.6769H107.364V15.1048H108.517ZM106.216 17.4706H108.824C110.052 17.4706 110.817 16.8741 110.817 15.9389C110.817 15.2716 110.332 14.7863 109.6 14.6954V14.6548C110.144 14.5588 110.564 14.0584 110.564 13.5074C110.564 12.6682 109.896 12.1526 108.791 12.1526H106.216V17.4706Z" fill="white"/>
<path d="M53.0233 34.6122H55.3468L50.2391 21.4426H47.8665L42.7588 34.6122H45.0431L46.3371 31.0529H51.7293L53.0233 34.6122ZM49.0038 23.6329H49.0627L51.1704 29.4101H46.896L49.0038 23.6329Z" fill="white"/>
<path d="M62.0033 24.8559C60.5132 24.8559 59.3269 25.5587 58.719 26.663H58.6798V25.011H56.6309V37.7882H58.7485V33.0333H58.7975C59.3858 34.1012 60.5622 34.7764 62.0426 34.7764C64.6307 34.7764 66.3464 32.8508 66.3464 29.8117C66.3464 26.7724 64.6209 24.8559 62.0033 24.8559ZM61.4445 33.1062C59.8171 33.1062 58.7387 31.8103 58.7387 29.8117C58.7387 27.8312 59.8269 26.517 61.4445 26.517C63.1209 26.517 64.1699 27.8037 64.1699 29.8117C64.1699 31.8286 63.1209 33.1062 61.4445 33.1062Z" fill="white"/>
<path d="M73.3353 24.8559C71.8452 24.8559 70.6589 25.5587 70.051 26.663H70.0119V25.011H67.9629V37.7882H70.0805V33.0333H70.1295C70.7178 34.1012 71.8942 34.7764 73.3746 34.7764C75.9628 34.7764 77.6785 32.8508 77.6785 29.8117C77.6785 26.7724 75.953 24.8559 73.3353 24.8559ZM72.7765 33.1062C71.1491 33.1062 70.0708 31.8103 70.0708 29.8117C70.0708 27.8312 71.1589 26.517 72.7765 26.517C74.453 26.517 75.5019 27.8037 75.5019 29.8117C75.5019 31.8286 74.453 33.1062 72.7765 33.1062Z" fill="white"/>
<path d="M82.9814 30.9433C83.1187 33.3253 85.2362 34.8312 88.3734 34.8312C91.7264 34.8312 93.8341 33.2888 93.8341 30.8247C93.8341 28.8989 92.6283 27.8129 89.7264 27.174L88.1676 26.8181C86.3441 26.3983 85.599 25.8506 85.599 24.9198C85.599 23.7516 86.7657 22.9485 88.4715 22.9485C90.1773 22.9485 91.3441 23.7424 91.4715 25.0567H93.6086C93.5401 22.7842 91.4911 21.2235 88.5009 21.2235C85.4813 21.2235 83.354 22.7842 83.354 25.0567C83.354 26.8911 84.5598 28.0228 87.1579 28.6069L88.9911 29.0176C90.8245 29.4374 91.599 30.0489 91.599 31.0711C91.599 32.2484 90.3147 33.1062 88.5303 33.1062C86.6677 33.1062 85.3049 32.2484 85.1481 30.9433H82.9814Z" fill="white"/>
<path d="M96.1475 22.7386V25.011H94.6475V26.5717H96.1475V32.0842C96.1475 33.9368 96.9613 34.6761 99.0494 34.6761C99.52 34.6761 99.9905 34.6395 100.226 34.5848V33.0242C100.089 33.0515 99.7454 33.0698 99.5298 33.0698C98.667 33.0698 98.2749 32.6956 98.2749 31.8651V26.5717H100.236V25.011H98.2749V22.7386H96.1475Z" fill="white"/>
<path d="M106.137 34.7947C109.088 34.7947 111.029 32.9055 111.029 29.8117C111.029 26.7269 109.078 24.8376 106.137 24.8376C103.196 24.8376 101.245 26.7269 101.245 29.8117C101.245 32.9055 103.186 34.7947 106.137 34.7947ZM106.137 33.1702C104.48 33.1702 103.402 31.9472 103.402 29.8117C103.402 27.6852 104.48 26.4621 106.137 26.4621C107.794 26.4621 108.872 27.6852 108.872 29.8117C108.872 31.9472 107.804 33.1702 106.137 33.1702Z" fill="white"/>
<path d="M112.646 34.6122H114.764V28.8624C114.764 27.5026 115.607 26.6538 116.97 26.6538C117.382 26.6538 117.754 26.6995 117.921 26.7634V24.929C117.764 24.9015 117.499 24.8559 117.195 24.8559C115.98 24.8559 115.058 25.5222 114.715 26.6447H114.666V25.011H112.646V34.6122Z" fill="white"/>
<path d="M123.077 26.4256C124.557 26.4256 125.557 27.4569 125.606 28.9264H120.45C120.557 27.4753 121.597 26.4256 123.077 26.4256ZM125.597 31.7921C125.312 32.6317 124.42 33.1976 123.214 33.1976C121.518 33.1976 120.44 32.0932 120.44 30.4232V30.3045H127.724V29.6291C127.724 26.7177 125.94 24.8376 123.077 24.8376C120.165 24.8376 118.303 26.8454 118.303 29.8572C118.303 32.8873 120.136 34.7947 123.165 34.7947C125.528 34.7947 127.312 33.5444 127.606 31.7921H125.597Z" fill="white"/>
</g>
<defs>
<clipPath id="clip0_146_494">
<rect width="140" height="44" fill="white"/>
</clipPath>
</defs>
</svg>
