<svg width="35" height="35" viewBox="0 0 35 35" fill="none" xmlns="http://www.w3.org/2000/svg">
<rect width="35" height="35" rx="17.5" fill="white"/>
<path d="M21.3652 9.00375L19.031 9C16.4086 9 14.7139 10.7387 14.7139 13.4298V15.4723H12.367C12.1642 15.4723 12 15.6367 12 15.8395V18.7988C12 19.0016 12.1644 19.1658 12.367 19.1658H14.7139V26.633C14.7139 26.8358 14.8782 27 15.081 27H18.143C18.3458 27 18.51 26.8356 18.51 26.633V19.1658H21.2541C21.4569 19.1658 21.6211 19.0016 21.6211 18.7988L21.6223 15.8395C21.6223 15.7421 21.5835 15.6489 21.5148 15.5799C21.446 15.511 21.3524 15.4723 21.255 15.4723H18.51V13.7409C18.51 12.9087 18.7083 12.4862 19.7924 12.4862L21.3648 12.4857C21.5674 12.4857 21.7316 12.3212 21.7316 12.1186V9.37077C21.7316 9.16835 21.5676 9.00412 21.3652 9.00375Z" fill="#3B5998"/>
</svg>
