<svg width="144" height="44" viewBox="0 0 144 44" fill="none" xmlns="http://www.w3.org/2000/svg">
<g clip-path="url(#clip0_404_1899)">
<path fill-rule="evenodd" clip-rule="evenodd" d="M135.117 0H8.79464C1.25557 0 0 2.38118 0 8.04424V36.0062C0 41.6654 2.58208 44 8.78614 44H135.119C141.327 44 144 41.6615 144 35.9985V8.04424C144 2.38118 141.326 0 135.117 0Z" fill="black"/>
<path d="M12.35 8.74176C12.0265 8.84529 11.7754 9.12094 11.7754 9.47682V35.1379C11.7754 35.4912 12.0222 35.7642 12.3415 35.8704L27.2862 22.3028L12.35 8.74176Z" fill="#00D6FF"/>
<path d="M31.4967 18.48L13.0547 8.80129C12.8235 8.67965 12.5709 8.67059 12.3496 8.74177L27.2859 22.3028L31.4967 18.48Z" fill="#00F076"/>
<path d="M13.0554 35.8121L31.5044 26.1295L27.2866 22.3002L12.3418 35.8678C12.5645 35.9428 12.8213 35.9351 13.0554 35.8121Z" fill="#FF3A44"/>
<path d="M31.504 26.1308L37.5037 22.9822C38.0741 22.6833 38.0741 21.9314 37.5037 21.6325L31.4969 18.48L27.2861 22.3028L31.504 26.1308Z" fill="#FFD000"/>
<path d="M72.3147 25.1852C69.7201 25.1852 67.6661 26.9596 67.6661 29.4254C67.6661 31.7922 69.7201 33.6657 72.3147 33.6657C74.9092 33.6657 76.9632 31.8913 76.9632 29.4254C76.9632 26.8617 74.9092 25.1852 72.3147 25.1852ZM72.3147 31.89C70.9101 31.89 69.7201 30.8058 69.7201 29.3263C69.7201 27.8468 70.9087 26.7625 72.3147 26.7625C73.7193 26.7625 74.9092 27.7489 74.9092 29.3263C74.9092 30.8058 73.7206 31.89 72.3147 31.89ZM62.2623 25.1852C59.6678 25.1852 57.6137 26.9596 57.6137 29.4254C57.6137 31.7922 59.6678 33.6657 62.2623 33.6657C64.8569 33.6657 66.9109 31.8913 66.9109 29.4254C66.9095 26.8617 64.8569 25.1852 62.2623 25.1852ZM62.2623 31.89C60.8578 31.89 59.6678 30.8058 59.6678 29.3263C59.6678 27.8468 60.8564 26.7625 62.2623 26.7625C63.6683 26.7625 64.8569 27.7489 64.8569 29.3263C64.8569 30.8058 63.667 31.89 62.2623 31.89ZM50.2634 26.4677V28.242H54.9119C54.8033 29.2284 54.3713 30.0164 53.8306 30.5096C53.1827 31.1008 52.1013 31.7909 50.2634 31.7909C47.3455 31.7909 45.1828 29.7203 45.1828 27.0587C45.1828 24.3971 47.4527 22.3265 50.2634 22.3265C51.7766 22.3265 52.9653 22.9175 53.8306 23.6078L55.2351 22.3265C54.0465 21.3401 52.5333 20.5521 50.3706 20.5521C46.4788 20.5521 43.1289 23.5098 43.1289 27.06C43.1289 30.61 46.4802 33.5679 50.3706 33.5679C52.5319 33.5679 54.0451 32.9768 55.3425 31.6942C56.6398 30.5109 57.0718 28.8344 57.0718 27.5532C57.0718 27.1591 57.0718 26.7638 56.963 26.469L50.2634 26.4677ZM99.3378 27.848C98.9058 26.8617 97.8245 25.1864 95.4459 25.1864C93.0673 25.1864 91.122 26.8629 91.122 29.4267C91.122 31.7934 93.0672 33.667 95.6619 33.667C97.7158 33.667 99.0131 32.4836 99.4451 31.7934L97.9318 30.8071C97.3911 31.4973 96.7431 31.9905 95.6619 31.9905C94.5806 31.9905 93.9327 31.5964 93.392 30.7092L99.5538 28.3425L99.3378 27.848ZM93.0687 29.2284C93.0687 27.651 94.4733 26.7638 95.4473 26.7638C96.2039 26.7638 96.9606 27.1578 97.1766 27.651L93.0687 29.2284ZM87.9881 33.2703H90.0421V20.9449H87.9881V33.2703ZM84.7456 26.0723C84.2049 25.5791 83.3411 25.086 82.2597 25.086C79.9898 25.086 77.8285 26.9596 77.8285 29.3263C77.8285 31.6929 79.8825 33.4674 82.2597 33.4674C83.3411 33.4674 84.2049 32.9742 84.6384 32.4811H84.747V33.0721C84.747 34.6495 83.7744 35.5367 82.2612 35.5367C81.0726 35.5367 80.2071 34.7473 79.9912 34.0572L78.2619 34.7473C78.8026 35.8317 80.0999 37.212 82.3698 37.212C84.7485 37.212 86.6937 35.9308 86.6937 32.8738V25.3796H84.7484V26.0723H84.7456ZM82.367 31.89C80.9625 31.89 79.7724 30.8058 79.7724 29.3263C79.7724 27.8468 80.961 26.7625 82.367 26.7625C83.7729 26.7625 84.8529 27.8468 84.8529 29.3263C84.8529 30.8058 83.7729 31.89 82.367 31.89ZM108.742 20.9462H103.878V33.2716H105.932V28.6374H108.742C111.012 28.6374 113.173 27.1578 113.173 24.7924C113.173 22.4269 111.012 20.9462 108.742 20.9462ZM108.851 26.8617H105.933V22.6214H108.851C110.364 22.6214 111.23 23.8048 111.23 24.692C111.121 25.7775 110.255 26.8617 108.851 26.8617ZM121.28 25.0872C119.767 25.0872 118.254 25.6783 117.713 26.9609L119.551 27.651C119.983 26.9609 120.632 26.7638 121.389 26.7638C122.47 26.7638 123.443 27.3548 123.55 28.3412V28.4403C123.226 28.2433 122.362 27.9471 121.496 27.9471C119.551 27.9471 117.605 28.9335 117.605 30.708C117.605 32.3845 119.226 33.4687 120.956 33.4687C122.36 33.4687 123.01 32.8776 123.55 32.2853H123.659V33.2716H125.604V28.5394C125.388 26.3686 123.55 25.0872 121.28 25.0872ZM121.064 31.89C120.416 31.89 119.443 31.5938 119.443 30.8058C119.443 29.8194 120.631 29.5245 121.604 29.5245C122.469 29.5245 122.901 29.7216 123.442 29.9186C123.227 31.1019 122.146 31.89 121.064 31.89ZM132.414 25.3822L130.144 30.7067H130.037L127.658 25.3822H125.497L129.064 32.8764L127.01 37.0175H129.064L134.577 25.3822H132.414ZM114.255 33.2703H116.309V20.9449H114.255V33.2703Z" fill="white"/>
<path d="M48.877 15.4399C48.3169 16.0232 47.6619 16.3068 46.8704 16.3068C46.1626 16.3068 45.5578 16.0869 45.0729 15.6521C44.5879 15.2187 44.3428 14.6391 44.3428 13.9312C44.3428 13.2232 44.5879 12.6435 45.0729 12.2101C45.5578 11.7754 46.1626 11.5555 46.8704 11.5555C47.6382 11.5555 48.2277 11.8008 48.6707 12.3042L48.7669 12.4135L49.5848 11.6902L49.4984 11.6C48.8282 10.8907 47.9433 10.5323 46.8691 10.5323C45.8253 10.5323 44.9364 10.8602 44.2284 11.5059C43.5206 12.1516 43.1611 12.9689 43.1611 13.9323C43.1611 14.8971 43.5206 15.7132 44.2284 16.3588C44.9364 17.0046 45.8253 17.3325 46.8691 17.3325C47.4431 17.3325 47.9824 17.227 48.473 17.0186C48.9634 16.8101 49.3758 16.5228 49.7019 16.1656L49.7827 16.0767L48.9732 15.3381L48.877 15.4399Z" fill="white"/>
<path d="M58.5178 10.7077L55.9484 16.9042L53.3649 13.5371L55.9037 10.8806V10.7077H54.5089L51.5854 13.724V10.7077H50.4707V17.1902H51.5854V15.3001L52.5233 14.3467L54.7318 17.1902H55.8215H56.0278H57.0994L57.771 15.5377H60.4632L61.125 17.1902H62.4028L59.7064 10.7077H58.5178ZM60.0563 14.5209H58.1695L59.1128 12.1453L60.0563 14.5209Z" fill="white"/>
<path d="M66.3561 13.2041C66.0774 13.5778 65.5813 13.7607 64.992 13.7607C64.5836 13.7607 64.2576 13.6629 64.043 13.4697C63.8256 13.274 63.7086 13.002 63.7086 12.6372V10.7077H62.5938V12.7757C62.5938 13.3832 62.8041 13.874 63.2486 14.2362C63.689 14.5947 64.2352 14.7764 64.8888 14.7764C65.4922 14.7764 65.9841 14.6187 66.3895 14.3061L66.3575 14.5082V17.1902H67.6116V10.7077H66.3575V13.2041H66.3561Z" fill="white"/>
<path d="M69.5624 15.2848L69.5611 14.465V10.7077H68.4463V17.1902H69.5918L72.9123 12.3588L72.9053 13.1609V17.1902H74.0202V10.7077H72.7382L69.5624 15.2848Z" fill="white"/>
<path d="M79.095 13.8129C79.297 13.696 79.467 13.546 79.6036 13.3629C79.7889 13.1151 79.8822 12.8253 79.8822 12.5037C79.8822 11.9788 79.6677 11.5542 79.2469 11.2072C78.8288 10.8628 78.3272 10.7077 77.7573 10.7077H75.1348V17.1902H77.8911C78.4875 17.1902 79.01 17.0083 79.4475 16.65C79.8892 16.2876 80.1122 15.8263 80.1122 15.2785C80.1122 14.9137 79.9923 14.587 79.7568 14.3087C79.5771 14.0951 79.3542 13.9299 79.095 13.8129ZM78.454 13.1062C78.2784 13.2817 78.0499 13.3769 77.7558 13.3769H76.2496V11.7246H77.7949C78.0763 11.7246 78.2937 11.7932 78.4638 11.9648C78.6366 12.1402 78.7201 12.3258 78.7201 12.5342C78.7201 12.7427 78.6338 12.9283 78.454 13.1062ZM78.6505 15.8885C78.4651 16.078 78.2297 16.1732 77.9286 16.1732H76.2496V14.3938H77.8911C78.2046 14.3938 78.4512 14.47 78.6435 14.6582C78.8386 14.8488 78.932 15.0446 78.932 15.2708C78.932 15.4971 78.8399 15.6953 78.6505 15.8885Z" fill="white"/>
<path d="M82.8898 10.7077L80.1934 17.1902H81.4712L82.1428 15.5377H84.835L85.4968 17.1902H86.7747L84.0784 10.7077H82.8898ZM84.4281 14.5209H82.5413L83.4848 12.1453L84.4281 14.5209Z" fill="white"/>
<path d="M90.0007 10.4522C90.3629 10.4522 90.6528 10.3327 90.9218 10.0976C91.192 9.86118 91.2994 9.56629 91.2994 9.2231V9.05532H90.3239V9.22183C90.3239 9.32479 90.3157 9.41249 90.2418 9.48749C90.1721 9.55993 90.0996 9.59298 89.9854 9.59298C89.8655 9.59298 89.7889 9.55993 89.7193 9.49002C89.6468 9.41758 89.6259 9.32988 89.6259 9.22056V9.05532H88.6504V9.22183C88.6504 9.56629 88.7772 9.86118 89.0546 10.0976C89.3304 10.3327 89.6384 10.4522 90.0007 10.4522Z" fill="white"/>
<path d="M88.3614 15.2848L88.3726 14.465V10.7077H87.2578V17.1902H88.3782L91.7113 12.3588L91.7169 13.1609V17.1902H92.8317V10.7077H91.5246L88.3614 15.2848Z" fill="white"/>
<path d="M93.3896 11.7246H95.3404V17.1902H96.5945V11.7246H98.406V10.7077H93.3896V11.7246Z" fill="white"/>
<path d="M99.1025 17.1902H103.422V16.1732H100.357V14.3938H103.144V13.3769H100.357V11.7246H103.422V10.7077H99.1025V17.1902Z" fill="white"/>
<path d="M111.094 14.3087C110.914 14.0951 110.691 13.9299 110.432 13.8129C110.634 13.696 110.804 13.546 110.941 13.3629C111.126 13.1151 111.219 12.8253 111.219 12.5037C111.219 11.9788 111.005 11.5542 110.583 11.2072C110.165 10.8628 109.663 10.7077 109.093 10.7077H106.487V17.1902H109.228C109.825 17.1902 110.347 17.0083 110.785 16.65C111.226 16.2876 111.449 15.8263 111.449 15.2785C111.449 14.9137 111.33 14.587 111.094 14.3087ZM109.791 13.1062C109.616 13.2817 109.387 13.3769 109.093 13.3769H107.602V11.7246H109.132C109.414 11.7246 109.631 11.7932 109.801 11.9648C109.974 12.1415 110.057 12.3258 110.057 12.5342C110.057 12.7427 109.971 12.9283 109.791 13.1062ZM109.988 15.8885C109.802 16.078 109.567 16.1732 109.266 16.1732H107.602V14.3938H109.228C109.542 14.3938 109.788 14.47 109.981 14.6582C110.176 14.8488 110.269 15.0446 110.269 15.2708C110.268 15.4971 110.176 15.6953 109.988 15.8885Z" fill="white"/>
</g>
<rect x="0.5" y="0.5" width="143" height="43" rx="5.5" stroke="#A6A6A6"/>
<defs>
<clipPath id="clip0_404_1899">
<rect width="144" height="44" rx="6" fill="white"/>
</clipPath>
</defs>
</svg>
