<svg width="35" height="35" viewBox="0 0 35 35" fill="none" xmlns="http://www.w3.org/2000/svg">
<rect width="35" height="35" rx="17.5" fill="white"/>
<g clip-path="url(#clip0_1_45)">
<path d="M20.375 9H13.625C10.5189 9 8 11.5189 8 14.625V21.375C8 24.4811 10.5189 27 13.625 27H20.375C23.4811 27 26 24.4811 26 21.375V14.625C26 11.5189 23.4811 9 20.375 9ZM24.3125 21.375C24.3125 23.5462 22.5462 25.3125 20.375 25.3125H13.625C11.4538 25.3125 9.6875 23.5462 9.6875 21.375V14.625C9.6875 12.4538 11.4538 10.6875 13.625 10.6875H20.375C22.5462 10.6875 24.3125 12.4538 24.3125 14.625V21.375Z" fill="#C32AA3"/>
<path d="M17 13.5C14.5149 13.5 12.5 15.5149 12.5 18C12.5 20.4851 14.5149 22.5 17 22.5C19.4851 22.5 21.5 20.4851 21.5 18C21.5 15.5149 19.4851 13.5 17 13.5ZM17 20.8125C15.4497 20.8125 14.1875 19.5503 14.1875 18C14.1875 16.4486 15.4497 15.1875 17 15.1875C18.5503 15.1875 19.8125 16.4486 19.8125 18C19.8125 19.5503 18.5503 20.8125 17 20.8125Z" fill="#C32AA3"/>
<path d="M21.8377 13.762C22.1688 13.762 22.4373 13.4935 22.4373 13.1624C22.4373 12.8312 22.1688 12.5627 21.8377 12.5627C21.5065 12.5627 21.238 12.8312 21.238 13.1624C21.238 13.4935 21.5065 13.762 21.8377 13.762Z" fill="#C32AA3"/>
</g>
<defs>
<clipPath id="clip0_1_45">
<rect width="18" height="18" fill="white" transform="translate(8 9)"/>
</clipPath>
</defs>
</svg>
