<svg width="35" height="35" viewBox="0 0 35 35" fill="none" xmlns="http://www.w3.org/2000/svg">
<rect width="35" height="35" rx="17.5" fill="white"/>
<g clip-path="url(#clip0_1_44)">
<path d="M26 19.9452V26.6H22.142V20.3909C22.142 18.8312 21.584 17.7667 20.1875 17.7667C19.1215 17.7667 18.4871 18.4841 18.208 19.178C18.1063 19.4261 18.0801 19.7714 18.0801 20.1187V26.6H14.2208C14.2208 26.6 14.2728 16.0839 14.2208 14.9944H18.0797V16.6394C18.0719 16.6517 18.0617 16.665 18.0543 16.6769H18.0797V16.6394C18.5924 15.8498 19.508 14.7217 21.5574 14.7217C24.0965 14.7217 26 16.3805 26 19.9452ZM10.1838 9.3999C8.86356 9.3999 8 10.2659 8 11.4047C8 12.5187 8.83857 13.4109 10.1326 13.4109H10.1584C11.5042 13.4109 12.3412 12.5188 12.3412 11.4047C12.3158 10.2659 11.5042 9.3999 10.1838 9.3999ZM8.22921 26.6H12.087V14.9944H8.22921V26.6Z" fill="#007BB5"/>
</g>
<defs>
<clipPath id="clip0_1_44">
<rect width="18" height="18" fill="white" transform="translate(8 9)"/>
</clipPath>
</defs>
</svg>
