<svg width="300" height="300" viewBox="0 0 300 300" fill="none" xmlns="http://www.w3.org/2000/svg">
<circle cx="150" cy="150" r="147.5" fill="#0094E3" stroke="#005F96" stroke-width="5"/>
<path d="M181.454 149.774C183.902 146.578 185.126 144.368 185.126 143.144C185.126 142.532 185.942 140.985 187.574 138.503C189.206 136.021 190.022 134.423 190.022 133.709C190.022 132.995 191.314 131.244 193.898 128.456C196.414 125.668 199.338 122.812 202.67 119.888C206.07 116.964 208.654 114.992 210.422 113.972C214.026 111.864 216.474 111.048 217.766 111.524C219.058 112 221.574 111.762 225.314 110.81C231.842 109.042 234.732 110.674 233.984 115.706C233.916 116.794 233.644 117.559 233.168 118.001C232.692 118.443 231.876 118.868 230.72 119.276C229.564 119.684 227.456 120.194 224.396 120.806C218.004 122.166 214.06 123.322 212.564 124.274C210.796 125.226 207.498 128.711 202.67 134.729C197.842 140.747 194.578 145.456 192.878 148.856C191.994 150.692 191.042 152.868 190.022 155.384C189.002 158.036 187.982 160.416 186.962 162.524C186.01 164.564 184.786 166.604 183.29 168.644C180.842 171.772 178.734 175.138 176.966 178.742C175.674 181.53 172.325 185.083 166.919 189.401C161.513 193.719 157.688 195.844 155.444 195.776C152.792 195.776 149.919 194.858 146.825 193.022C143.731 191.186 141.776 189.282 140.96 187.31C139.94 184.726 139.022 183.196 138.206 182.72C137.39 182.244 134.296 184.692 128.924 190.064C123.62 195.572 120.492 198.292 119.54 198.224C117.296 198.156 114.525 197.391 111.227 195.929C107.929 194.467 105.736 193.022 104.648 191.594C102.472 188.738 101.826 183.434 102.71 175.682C103.594 167.93 105.43 162.354 108.218 158.954C111.55 154.806 115.817 145.116 121.019 129.884C126.221 114.652 128.006 106.56 126.374 105.608C125.762 105.268 124.147 105.472 121.529 106.22C118.911 106.968 117.602 107.58 117.602 108.056C117.602 108.396 118.01 109.246 118.826 110.606C119.914 112.238 119.574 114.771 117.806 118.205C116.038 121.639 113.624 124.784 110.564 127.64C107.504 130.496 104.852 131.924 102.608 131.924C100.364 131.924 98.817 130.904 97.967 128.864C97.117 126.824 96.692 123.152 96.692 117.848C96.692 115.4 96.777 113.615 96.947 112.493C97.117 111.371 97.474 110.402 98.018 109.586C98.562 108.77 99.446 107.716 100.67 106.424C105.43 102.004 112.06 98.536 120.56 96.02C124.164 94.932 126.782 94.541 128.414 94.847C130.046 95.153 131.848 96.292 133.82 98.264C134.976 99.692 135.741 101.035 136.115 102.293C136.489 103.551 136.608 105.744 136.472 108.872C136.472 112.816 135.775 117.644 134.381 123.356C132.987 129.068 131.644 133.76 130.352 137.432C129.06 141.104 128.142 143.45 127.598 144.47C127.122 145.49 125.184 149.06 121.784 155.18C119.268 160.076 117.602 162.966 116.786 163.85C115.494 165.618 113.454 172.418 110.666 184.25C110.19 186.154 110.87 187.582 112.706 188.534C113.794 189.078 114.797 189.146 115.715 188.738C116.633 188.33 118.18 187.14 120.356 185.168C124.912 181.088 128.873 176.702 132.239 172.01C135.605 167.318 139.328 161.13 143.408 153.446C148.576 143.45 152.01 137.262 153.71 134.882C155.614 132.23 157.416 128.762 159.116 124.478C161.224 119.106 163.094 115.315 164.726 113.105C166.358 110.895 167.99 109.79 169.622 109.79C171.934 109.79 173.481 110.436 174.263 111.728C175.045 113.02 174.892 114.686 173.804 116.726C173.464 117.338 172.308 120.262 170.336 125.498C168.364 130.734 166.732 133.862 165.44 134.882C163.808 136.378 162.992 137.738 162.992 138.962C162.992 139.778 162.176 141.461 160.544 144.011C158.912 146.561 158.096 148.312 158.096 149.264C158.096 150.76 157.688 151.746 156.872 152.222C155.512 153.038 153.778 156.812 151.67 163.544C149.562 170.276 148.508 175.274 148.508 178.538C148.644 179.966 148.933 181.343 149.375 182.669C149.817 183.995 150.429 185.1 151.211 185.984C151.993 186.868 152.724 187.31 153.404 187.31C153.948 187.31 154.832 186.868 156.056 185.984C157.28 185.1 158.504 184.097 159.728 182.975C160.952 181.853 162.006 180.714 162.89 179.558C163.774 178.402 164.216 177.552 164.216 177.008C164.216 175.444 165.61 173.336 168.398 170.684C170.37 168.916 172.444 166.349 174.62 162.983C176.796 159.617 177.884 157.254 177.884 155.894C177.884 155.078 179.074 153.038 181.454 149.774Z" fill="white"/>
</svg>
