<svg width="35" height="35" viewBox="0 0 35 35" fill="none" xmlns="http://www.w3.org/2000/svg">
<rect width="35" height="35" rx="17.5" fill="white"/>
<g clip-path="url(#clip0_1_43)">
<path d="M16.9999 27C21.9624 27 25.9997 22.9624 25.9997 17.9996C25.9997 13.0372 21.9624 9 16.9999 9C12.0373 9 8 13.0372 8 17.9996C8 22.9624 12.0374 27 16.9999 27ZM16.9999 24.9037C15.5742 24.9037 14.2204 24.4769 13.0622 23.6655C13.5345 22.882 14.9702 20.9184 18.0455 19.7454C18.8207 21.847 19.2155 23.6404 19.3757 24.4816C18.6171 24.7619 17.8196 24.9037 16.9999 24.9037ZM21.3838 23.3253C21.2098 22.4752 20.8588 20.9794 20.2493 19.217C20.5575 19.1864 20.8731 19.1709 21.1931 19.1709C22.3101 19.1709 23.242 19.3577 23.7341 19.4805C23.4055 20.9823 22.5721 22.3418 21.3838 23.3253ZM22.649 14.0672C23.3406 15.0573 23.7623 16.2197 23.8668 17.4227C23.2326 17.3186 22.1462 17.1778 20.9096 17.1778C20.4195 17.1778 19.9451 17.2003 19.4946 17.2447C19.4828 17.2165 19.4708 17.1882 19.4588 17.1597C19.3648 16.9399 19.2639 16.7144 19.1576 16.4859C20.995 15.6617 22.1084 14.6522 22.649 14.0672ZM16.9999 11.1181C18.5473 11.1181 20.043 11.639 21.255 12.5927C20.8372 13.0599 19.8849 13.9494 18.2089 14.6421C17.3733 13.1478 16.5158 11.8809 16.0255 11.1871C16.347 11.1412 16.6729 11.1181 16.9999 11.1181ZM13.7524 11.9329C14.1567 12.5023 15.0486 13.795 15.949 15.3428C13.5271 15.9267 11.399 16.0535 10.3832 16.0782C10.901 14.3141 12.123 12.8074 13.7524 11.9329ZM16.9836 17.2562C17.062 17.4147 17.1372 17.571 17.2092 17.7244C14.1501 18.7757 12.251 21.1204 11.517 22.1831C10.6454 21.0403 10.1528 19.6567 10.1099 18.2167C11.175 18.2055 14.0148 18.0904 16.9836 17.2562Z" fill="#EA4C89"/>
</g>
<defs>
<clipPath id="clip0_1_43">
<rect width="18" height="18" fill="white" transform="translate(8 9)"/>
</clipPath>
</defs>
</svg>
