<svg width="35" height="35" viewBox="0 0 35 35" fill="none" xmlns="http://www.w3.org/2000/svg">
<rect width="35" height="35" rx="17.5" fill="white"/>
<g clip-path="url(#clip0_1_46)">
<path d="M26 12.4189C25.3306 12.7125 24.6174 12.9071 23.8737 13.0016C24.6387 12.5449 25.2226 11.8271 25.4971 10.962C24.7839 11.3872 23.9964 11.6876 23.1571 11.8553C22.4799 11.1341 21.5146 10.6875 20.4616 10.6875C18.4186 10.6875 16.7739 12.3458 16.7739 14.3786C16.7739 14.6711 16.7986 14.9524 16.8594 15.2201C13.7915 15.0705 11.0769 13.6001 9.25325 11.3603C8.93487 11.9126 8.74813 12.5449 8.74813 13.2255C8.74813 14.5035 9.40625 15.6364 10.3872 16.2922C9.79437 16.281 9.21275 16.1089 8.72 15.8378C8.72 15.849 8.72 15.8636 8.72 15.8782C8.72 17.6715 9.99912 19.161 11.6765 19.5041C11.3761 19.5862 11.0487 19.6256 10.709 19.6256C10.4727 19.6256 10.2342 19.6121 10.0104 19.5626C10.4885 21.024 11.8453 22.0984 13.4585 22.1332C12.203 23.1154 10.6089 23.7071 8.88313 23.7071C8.5805 23.7071 8.29025 23.6936 8 23.6565C9.63462 24.7106 11.5719 25.3125 13.661 25.3125C20.4515 25.3125 24.164 19.6875 24.164 14.8117C24.164 14.6486 24.1584 14.4911 24.1505 14.3348C24.8829 13.815 25.4982 13.1659 26 12.4189Z" fill="#489DFF"/>
</g>
<defs>
<clipPath id="clip0_1_46">
<rect width="18" height="18" fill="white" transform="translate(8 9)"/>
</clipPath>
</defs>
</svg>
